<svg width="24" height="24" viewBox="0 0 24 24" fill="none" xmlns="http://www.w3.org/2000/svg">
<line x1="2" y1="1" x2="2" y2="23" stroke="black" stroke-width="2"/>
<line x1="12" y1="1" x2="12" y2="23" stroke="black" stroke-width="2"/>
<line x1="23" y1="12" x2="1" y2="12" stroke="black" stroke-width="2"/>
<line x1="23" y1="22" x2="1" y2="22" stroke="black" stroke-width="2"/>
<line x1="1" y1="2" x2="12" y2="2" stroke="black" stroke-width="2"/>
<line x1="22" y1="12" x2="22" y2="23" stroke="black" stroke-width="2"/>
<rect x="15.5" y="4.5" width="6" height="4" rx="0.5" stroke="black"/>
<mask id="path-8-inside-1_2_8" fill="white">
<path d="M21 4C21 3.20435 20.7366 2.44129 20.2678 1.87868C19.7989 1.31607 19.163 1 18.5 1C17.837 1 17.2011 1.31607 16.7322 1.87868C16.2634 2.44129 16 3.20435 16 4L16.8181 4C16.8181 3.46471 16.9953 2.95134 17.3107 2.57284C17.6261 2.19433 18.0539 1.98169 18.5 1.98169C18.9461 1.98169 19.3739 2.19433 19.6893 2.57284C20.0047 2.95135 20.1819 3.46471 20.1819 4H21Z"/>
</mask>
<path d="M21 4C21 3.20435 20.7366 2.44129 20.2678 1.87868C19.7989 1.31607 19.163 1 18.5 1C17.837 1 17.2011 1.31607 16.7322 1.87868C16.2634 2.44129 16 3.20435 16 4L16.8181 4C16.8181 3.46471 16.9953 2.95134 17.3107 2.57284C17.6261 2.19433 18.0539 1.98169 18.5 1.98169C18.9461 1.98169 19.3739 2.19433 19.6893 2.57284C20.0047 2.95135 20.1819 3.46471 20.1819 4H21Z" stroke="black" stroke-width="2" mask="url(#path-8-inside-1_2_8)"/>
<path d="M18.4697 6.42781H18.5691" stroke="black" stroke-linecap="round"/>
</svg>
